/* XPM */
static char * Z:\Lyrabar\share\pixmaps\lyrabar32_xpm[] = {
"32 32 255 2",
"  	c None",
". 	c #7BD791",
"+ 	c #79D690",
"@ 	c #77D68E",
"# 	c #76D58D",
"$ 	c #74D58D",
"% 	c #72D58A",
"& 	c #6FD488",
"* 	c #60CE7B",
"= 	c #66D181",
"- 	c #6BD284",
"; 	c #72D48A",
"> 	c #7DD893",
", 	c #7AD791",
"' 	c #77D58E",
") 	c #75D58C",
"! 	c #73D58B",
"~ 	c #71D489",
"{ 	c #6FD388",
"] 	c #6DD387",
"^ 	c #6CD285",
"/ 	c #6AD283",
"( 	c #67D182",
"_ 	c #66D180",
": 	c #64D07E",
"< 	c #64D080",
"[ 	c #4CC96B",
"} 	c #43C663",
"| 	c #41C562",
"1 	c #48C667",
"2 	c #4EC96C",
"3 	c #52CB6F",
"4 	c #56CB72",
"5 	c #5DCE78",
"6 	c #63D07E",
"7 	c #6ED387",
"8 	c #6AD284",
"9 	c #6CD386",
"0 	c #6ED386",
"a 	c #70D389",
"b 	c #6DD386",
"c 	c #69D283",
"d 	c #60CF7B",
"e 	c #5DCE79",
"f 	c #59CD76",
"g 	c #53CB71",
"h 	c #4AC868",
"i 	c #57CC74",
"j 	c #42C662",
"k 	c #3AC15B",
"l 	c #36BA56",
"m 	c #41BD60",
"n 	c #4DC66A",
"o 	c #5AD077",
"p 	c #51CA6E",
"q 	c #54CB72",
"r 	c #6DD385",
"s 	c #6BD385",
"t 	c #69D182",
"u 	c #6BD283",
"v 	c #64D17F",
"w 	c #5FCF7A",
"x 	c #5DCF79",
"y 	c #56CD74",
"z 	c #55CC73",
"A 	c #5ECF7A",
"B 	c #66D080",
"C 	c #7ED894",
"D 	c #88DC9C",
"E 	c #83DC9A",
"F 	c #67D181",
"G 	c #56CC74",
"H 	c #4BC96A",
"I 	c #3EC45F",
"J 	c #3AC05B",
"K 	c #35B455",
"L 	c #31AB4E",
"M 	c #3EB45C",
"N 	c #49BF66",
"O 	c #59D076",
"P 	c #50CA6F",
"Q 	c #4FCA6E",
"R 	c #56CC73",
"S 	c #74D58C",
"T 	c #71D48A",
"U 	c #73D88C",
"V 	c #61CB7B",
"W 	c #50C06C",
"X 	c #3DB35A",
"Y 	c #2AA448",
"Z 	c #31A84E",
"` 	c #6CD385",
" .	c #64D07F",
"..	c #5BCE78",
"+.	c #48C768",
"@.	c #3CC35D",
"#.	c #37BB58",
"$.	c #35B254",
"%.	c #32A74E",
"&.	c #2B9E48",
"*.	c #3FAD5A",
"=.	c #4CBB67",
"-.	c #61CF7C",
";.	c #77D68F",
">.	c #86DB9B",
",.	c #82D997",
"'.	c #65D380",
").	c #52C66E",
"!.	c #3EB55B",
"~.	c #2DA64A",
"{.	c #30A54D",
"].	c #32A64E",
"^.	c #32A74F",
"/.	c #32A84F",
"(.	c #33AB50",
"_.	c #59BD72",
":.	c #74D88D",
"<.	c #61CF7D",
"[.	c #58CD75",
"}.	c #47C767",
"|.	c #3BC15C",
"1.	c #36B857",
"2.	c #32AB4F",
"3.	c #35AD53",
"4.	c #41BF60",
"5.	c #44C765",
"6.	c #76D68E",
"7.	c #83D998",
"8.	c #78D68F",
"9.	c #52CB70",
"0.	c #2FAB4D",
"a.	c #33AD51",
"b.	c #34AE52",
"c.	c #31A44D",
"d.	c #31A54E",
"e.	c #33AA50",
"f.	c #318746",
"g.	c #58BE72",
"h.	c #72D78B",
"i.	c #5ACD76",
"j.	c #54CC71",
"k.	c #50CB70",
"l.	c #4CCA6B",
"m.	c #46C766",
"n.	c #46C767",
"o.	c #5BCD76",
"p.	c #6FD487",
"q.	c #3CC05D",
"r.	c #3DC25D",
"s.	c #33AC51",
"t.	c #34AF52",
"u.	c #36B355",
"v.	c #32A64F",
"w.	c #33AB51",
"x.	c #36B455",
"y.	c #36B756",
"z.	c #328947",
"A.	c #5BBF73",
"B.	c #70D689",
"C.	c #68D182",
"D.	c #4DC96C",
"E.	c #41C662",
"F.	c #3EC55F",
"G.	c #4AC368",
"H.	c #61D07C",
"I.	c #30A74E",
"J.	c #32A94F",
"K.	c #32A950",
"L.	c #34AD52",
"M.	c #35B154",
"N.	c #38BD59",
"O.	c #37B757",
"P.	c #38BC58",
"Q.	c #39BF5A",
"R.	c #358A49",
"S.	c #5FC277",
"T.	c #70D589",
"U.	c #65D180",
"V.	c #5ECE79",
"W.	c #5ACE77",
"X.	c #51CA6F",
"Y.	c #47C866",
"Z.	c #4AC769",
"`.	c #33AE51",
" +	c #37B957",
".+	c #39BD5A",
"++	c #3FC460",
"@+	c #49C969",
"#+	c #43C464",
"$+	c #3FC560",
"%+	c #358B4A",
"&+	c #5EC578",
"*+	c #6BD384",
"=+	c #65D07F",
"-+	c #5CCE78",
";+	c #50CA6E",
">+	c #51CB6F",
",+	c #61D07D",
"'+	c #34B053",
")+	c #36B456",
"!+	c #36B556",
"~+	c #38BB58",
"{+	c #3CC15D",
"]+	c #42C562",
"^+	c #4AC96A",
"/+	c #51CC70",
"(+	c #3EC560",
"_+	c #2A8941",
":+	c #368B4B",
"<+	c #5EC878",
"[+	c #67D281",
"}+	c #5FCF7B",
"|+	c #5BCE77",
"1+	c #57CD73",
"2+	c #51CA70",
"3+	c #62CF7D",
"4+	c #36B154",
"5+	c #36B656",
"6+	c #39BC59",
"7+	c #39C05A",
"8+	c #3BC35C",
"9+	c #3DC45E",
"0+	c #3ECB61",
"a+	c #3BB058",
"b+	c #399A50",
"c+	c #5FCA79",
"d+	c #60D07C",
"e+	c #59CD77",
"f+	c #53CC71",
"g+	c #37B556",
"h+	c #37B756",
"i+	c #39C05B",
"j+	c #3EC760",
"k+	c #3BC35D",
"l+	c #2C9546",
"m+	c #378A4B",
"n+	c #5FCD79",
"o+	c #55CC72",
"p+	c #59CD75",
"q+	c #65D17F",
"r+	c #3AB759",
"s+	c #38B656",
"t+	c #40CC62",
"u+	c #31A44E",
"v+	c #267E3C",
"w+	c #328B48",
"x+	c #4DBA68",
"y+	c #64D781",
"z+	c #3BBB5A",
"A+	c #33A64F",
"B+	c #298941",
"C+	c #1B5A2A",
"D+	c #103F1B",
"E+	c #154821",
"F+	c #154620",
"                                                                ",
"                                                                ",
"                                                                ",
"                                                                ",
"                                                                ",
"                                                                ",
"                                                                ",
"                                                                ",
"              . + @ # $ % &                                     ",
"    * = - ; > , ' ) ! ~ { ] ^ / ( _ : : <                       ",
"  [ } | 1 2 3 4 5 6 7 { 8 9 0 { a 7 b c _ 6 d e f g h           ",
"  d i [ j k l m n o p q d _ r s t u v w x y z A B { C D E       ",
"  F 6 w G H I J K L M N O P Q R d & @ S T & ; ! U V W X Y Z     ",
"  ` t  .d ..R +.@.#.$.%.&.*.=.v -.;.>.,.@ '.).!.~.{.].^./.(.    ",
"  _.:.8 _ <.e [.g }.|.1.2.3.4.5.e 6.7.8.9.0.a.b.].c.d./.e.b.    ",
"    f.g.h.F  .w i.j.g Q k.l.m.j n.o.p.q.r.(.s.t.u.t.v.w.t.x.y.  ",
"        z.A.B.C.F F  .d ..i D.E.F.G.H.I.J.K.L.M.y.N.J x.O.P.Q.  ",
"            R.S.T.( U.-.V.W.R X.Y.Z.H.`.L.$. +.+|.++} @+#+@.$+  ",
"                %+&+*+=+d -+[.j.;+>+,+'+)+x.!+~+{+]+^+g g /+(+_+",
"                    :+<+[+}+|+1+2+G 3+4+5+ +6+7+8+(+9+0+a+b+    ",
"                        %+c+d+e+f+[.6 g+h+i+@.$+j+k+l+          ",
"                            m+n+o+p+q+r+s+(+t+u+v+              ",
"                                w+x+y+z+A+B+C+                  ",
"                                    D+E+F+                      ",
"                                                                ",
"                                                                ",
"                                                                ",
"                                                                ",
"                                                                ",
"                                                                ",
"                                                                ",
"                                                                "};
