/* XPM */
static char * Z:\Lyrabar\share\pixmaps\lyrabar64_xpm[] = {
"64 64 475 2",
"  	c None",
". 	c #76D58D",
"+ 	c #75D58C",
"@ 	c #75D58D",
"# 	c #73D58B",
"$ 	c #79D690",
"% 	c #7AD690",
"& 	c #7AD691",
"* 	c #7BD791",
"= 	c #7CD792",
"- 	c #78D68F",
"; 	c #77D58E",
"> 	c #74D58C",
", 	c #72D58A",
"' 	c #71D589",
") 	c #6FD488",
"! 	c #6DD386",
"~ 	c #6AD284",
"{ 	c #63CF7E",
"] 	c #64D07F",
"^ 	c #69D283",
"/ 	c #71D489",
"( 	c #79D68F",
"_ 	c #7ED793",
": 	c #79D790",
"< 	c #77D68E",
"[ 	c #72D48A",
"} 	c #70D489",
"| 	c #6ED387",
"1 	c #6DD387",
"2 	c #6CD285",
"3 	c #6CD385",
"4 	c #6BD284",
"5 	c #68D182",
"6 	c #67D181",
"7 	c #64D07E",
"8 	c #4AC969",
"9 	c #53CB71",
"0 	c #5FCE7A",
"a 	c #60CF7B",
"b 	c #5ACE77",
"c 	c #59CD75",
"d 	c #76D68D",
"e 	c #7BD792",
"f 	c #7AD790",
"g 	c #70D488",
"h 	c #6CD386",
"i 	c #6BD285",
"j 	c #6AD283",
"k 	c #66D180",
"l 	c #65D07F",
"m 	c #65D180",
"n 	c #65D080",
"o 	c #63D07E",
"p 	c #49C869",
"q 	c #44C764",
"r 	c #3EC45F",
"s 	c #41C562",
"t 	c #4CC96B",
"u 	c #55CC73",
"v 	c #59CD76",
"w 	c #54CC71",
"x 	c #50CA6E",
"y 	c #52CB6F",
"z 	c #5ACC76",
"A 	c #66D080",
"B 	c #6FD487",
"C 	c #74D58B",
"D 	c #73D48A",
"E 	c #69D182",
"F 	c #6DD385",
"G 	c #71D48A",
"H 	c #6ED487",
"I 	c #68D181",
"J 	c #66D181",
"K 	c #64D17E",
"L 	c #62D07C",
"M 	c #5ECF7A",
"N 	c #5CCE79",
"O 	c #5ACE76",
"P 	c #58CD75",
"Q 	c #4FCA6D",
"R 	c #4BC96B",
"S 	c #47C867",
"T 	c #42C662",
"U 	c #3FC45F",
"V 	c #39C25B",
"W 	c #3BC05B",
"X 	c #40C261",
"Y 	c #4BC969",
"Z 	c #53CC70",
"` 	c #54CB71",
" .	c #4DC96B",
"..	c #4BC86A",
"+.	c #49C969",
"@.	c #58CC75",
"#.	c #6ED388",
"$.	c #73D58A",
"%.	c #6CD286",
"&.	c #6AD183",
"*.	c #62CF7D",
"=.	c #61CF7C",
"-.	c #5DCF79",
";.	c #5ACD77",
">.	c #57CC74",
",.	c #56CC73",
"'.	c #54CC72",
").	c #52CA70",
"!.	c #50CA6D",
"~.	c #4CC86B",
"{.	c #52CB70",
"].	c #76D58E",
"^.	c #5FCF7A",
"/.	c #5DCE79",
"(.	c #54CB72",
"_.	c #4EC96C",
":.	c #46C765",
"<.	c #42C562",
"[.	c #3DC45E",
"}.	c #3AC25B",
"|.	c #38BB58",
"1.	c #35B855",
"2.	c #3BBC5B",
"3.	c #48C567",
"4.	c #59CE75",
"5.	c #55CB73",
"6.	c #51CA6F",
"7.	c #53CB70",
"8.	c #56CC74",
"9.	c #5ECE79",
"0.	c #6BD385",
"a.	c #6BD283",
"b.	c #62D07D",
"c.	c #5BCE77",
"d.	c #57CD74",
"e.	c #52CA6F",
"f.	c #66D081",
"g.	c #81D997",
"h.	c #85DA9A",
"i.	c #84DB99",
"j.	c #55CB72",
"k.	c #4DC96C",
"l.	c #46C766",
"m.	c #3FC661",
"n.	c #3CC35D",
"o.	c #3AC15B",
"p.	c #35B555",
"q.	c #34B253",
"r.	c #39B758",
"s.	c #47C265",
"t.	c #55CE72",
"u.	c #5BCE78",
"v.	c #50CA6F",
"w.	c #51CB6F",
"x.	c #55CC72",
"y.	c #69D282",
"z.	c #53CC71",
"A.	c #65D17F",
"B.	c #7CD793",
"C.	c #82D997",
"D.	c #83DA99",
"E.	c #71D78B",
"F.	c #57C773",
"G.	c #3AC25C",
"H.	c #39BE5A",
"I.	c #37BB58",
"J.	c #36B455",
"K.	c #34AE52",
"L.	c #31A84E",
"M.	c #34B052",
"N.	c #45BF64",
"O.	c #58CE76",
"P.	c #61CF7D",
"Q.	c #68D282",
"R.	c #69D284",
"S.	c #76D78E",
"T.	c #5AC875",
"U.	c #44B961",
"V.	c #2DAB4D",
"W.	c #2FA34B",
"X.	c #31A64E",
"Y.	c #5ACE78",
"Z.	c #4CC96C",
"`.	c #44C663",
" +	c #3FC560",
".+	c #3AC05B",
"++	c #38BC59",
"@+	c #36B856",
"#+	c #36B355",
"$+	c #34AF52",
"%+	c #32A74F",
"&+	c #2FA44C",
"*+	c #34A850",
"=+	c #42B85F",
"-+	c #54CD72",
";+	c #60D07B",
">+	c #4FC96D",
",+	c #75D68D",
"'+	c #7FD895",
")+	c #7ED894",
"!+	c #7ED895",
"~+	c #7DD893",
"{+	c #6DD286",
"]+	c #71D58A",
"^+	c #66D381",
"/+	c #54C46F",
"(+	c #3FB85D",
"_+	c #34AD52",
":+	c #2FA84C",
"<+	c #31A74E",
"[+	c #32A84F",
"}+	c #32A94F",
"|+	c #33AA50",
"1+	c #33AB51",
"2+	c #43C663",
"3+	c #3BC35C",
"4+	c #39BF5A",
"5+	c #37B957",
"6+	c #36B556",
"7+	c #35B154",
"8+	c #33AC51",
"9+	c #32A74E",
"0+	c #30A24C",
"a+	c #2D9A48",
"b+	c #2EA54B",
"c+	c #45B962",
"d+	c #5ACB76",
"e+	c #61D27D",
"f+	c #58CD74",
"g+	c #6FD388",
"h+	c #84DA99",
"i+	c #82DA97",
"j+	c #80D895",
"k+	c #66D281",
"l+	c #59CC75",
"m+	c #44BE62",
"n+	c #32AF50",
"o+	c #2FA54C",
"p+	c #6CD185",
"q+	c #6ED386",
"r+	c #62D07E",
"s+	c #44C664",
"t+	c #38BD59",
"u+	c #37B856",
"v+	c #36B354",
"w+	c #35AF53",
"x+	c #30A24D",
"y+	c #2F9B49",
"z+	c #2C9947",
"A+	c #30A04C",
"B+	c #40AF5B",
"C+	c #60CE7B",
"D+	c #86DB9B",
"E+	c #85DB9A",
"F+	c #80D896",
"G+	c #78D78F",
"H+	c #67D281",
"I+	c #41BD60",
"J+	c #35B454",
"K+	c #31A94E",
"L+	c #31A54D",
"M+	c #33AB50",
"N+	c #53B66B",
"O+	c #73D98C",
"P+	c #5CCE78",
"Q+	c #5ACD76",
"R+	c #36B656",
"S+	c #30A44D",
"T+	c #2E9C49",
"U+	c #31A44D",
"V+	c #41C060",
"W+	c #48C968",
"X+	c #48C868",
"Y+	c #84DA9A",
"Z+	c #81D896",
"`+	c #4BC769",
" @	c #31B150",
".@	c #32AA50",
"+@	c #33AA51",
"@@	c #31A54E",
"#@	c #31A74F",
"$@	c #217035",
"%@	c #53BE6D",
"&@	c #79D990",
"*@	c #67D180",
"=@	c #45C765",
"-@	c #3BC25C",
";@	c #39BD59",
">@	c #37BA58",
",@	c #33AC50",
"'@	c #43C263",
")@	c #49CA69",
"!@	c #7CD893",
"~@	c #3EC55F",
"{@	c #35B254",
"]@	c #35B053",
"^@	c #36B254",
"/@	c #207735",
"(@	c #5CC074",
"_@	c #72D98C",
":@	c #56CC72",
"<@	c #43C664",
"[@	c #3EC25E",
"}@	c #43C363",
"|@	c #4DCB6D",
"1@	c #49C868",
"2@	c #4FCA6E",
"3@	c #4ECA6C",
"4@	c #4CC96A",
"5@	c #35B153",
"6@	c #36B555",
"7@	c #25783A",
"8@	c #57C472",
"9@	c #78D88F",
"0@	c #5ECE7A",
"a@	c #4AC96A",
"b@	c #48C867",
"c@	c #43C763",
"d@	c #40C561",
"e@	c #3DC15E",
"f@	c #32A850",
"g@	c #277F3C",
"h@	c #5CC476",
"i@	c #71D88B",
"j@	c #43C764",
"k@	c #40C662",
"l@	c #35B956",
"m@	c #53CA70",
"n@	c #36B756",
"o@	c #39C05A",
"p@	c #35B354",
"q@	c #2A793D",
"r@	c #60CB7A",
"s@	c #77D78F",
"t@	c #4FC96E",
"u@	c #41C662",
"v@	c #34B955",
"w@	c #35B355",
"x@	c #38BA58",
"y@	c #37B857",
"z@	c #2C8742",
"A@	c #65CA7D",
"B@	c #74D88D",
"C@	c #61CF7B",
"D@	c #42C663",
"E@	c #36BD57",
"F@	c #60D07C",
"G@	c #30A34D",
"H@	c #32AA4F",
"I@	c #34AC52",
"J@	c #38BB57",
"K@	c #38BE5A",
"L@	c #3BC35D",
"M@	c #46C966",
"N@	c #3BBF5C",
"O@	c #38BE59",
"P@	c #0F471D",
"Q@	c #2F8043",
"R@	c #74D58D",
"S@	c #4BC96A",
"T@	c #40C661",
"U@	c #3DC55F",
"V@	c #10401C",
"W@	c #328F48",
"X@	c #65CE7F",
"Y@	c #71D68A",
"Z@	c #3BBE5B",
"`@	c #3AC35C",
" #	c #39BB59",
".#	c #124E21",
"+#	c #318847",
"@#	c #66D682",
"##	c #63D07D",
"$#	c #69D183",
"%#	c #3CBF5C",
"&#	c #36B456",
"*#	c #37BA57",
"=#	c #3BC15C",
"-#	c #3FC460",
";#	c #4DCC6D",
">#	c #27813E",
",#	c #12471E",
"'#	c #36964E",
")#	c #66D280",
"!#	c #4DCA6C",
"~#	c #3EC15E",
"{#	c #36B655",
"]#	c #38B958",
"^#	c #48C767",
"/#	c #4ECD6E",
"(#	c #4EC66B",
"_#	c #3CA656",
":#	c #1F7835",
"<#	c #155324",
"[#	c #36904C",
"}#	c #68D783",
"|#	c #62CF7C",
"1#	c #5FCF7B",
"2#	c #60CF7C",
"3#	c #3FC25F",
"4#	c #31A44E",
"5#	c #39BD5A",
"6#	c #3CC45D",
"7#	c #3BC45D",
"8#	c #3DC960",
"9#	c #247D3A",
"0#	c #134B20",
"a#	c #3B9C53",
"b#	c #63D27F",
"c#	c #38BC58",
"d#	c #38BD5A",
"e#	c #39C05B",
"f#	c #3CC45E",
"g#	c #3CC75E",
"h#	c #2D9547",
"i#	c #1C5F2C",
"j#	c #175626",
"k#	c #3A9751",
"l#	c #34AC51",
"m#	c #3EC960",
"n#	c #227135",
"o#	c #174F24",
"p#	c #155625",
"q#	c #41A259",
"r#	c #64D47F",
"s#	c #5BCD77",
"t#	c #43C563",
"u#	c #32A950",
"v#	c #3CC55D",
"w#	c #3DC45F",
"x#	c #3CC85F",
"y#	c #38B757",
"z#	c #2A8B42",
"A#	c #1A5729",
"B#	c #154621",
"C#	c #195929",
"D#	c #3EA156",
"E#	c #67D783",
"F#	c #63CF7D",
"G#	c #45C665",
"H#	c #30A54D",
"I#	c #41C761",
"J#	c #3CC55E",
"K#	c #3DC65E",
"L#	c #309C4B",
"M#	c #1F6931",
"N#	c #164B23",
"O#	c #174B23",
"P#	c #175C27",
"Q#	c #49AC61",
"R#	c #4BCB6B",
"S#	c #31A94F",
"T#	c #2F9E4A",
"U#	c #3EC660",
"V#	c #3EC860",
"W#	c #28843F",
"X#	c #195327",
"Y#	c #164C24",
"Z#	c #144721",
"`#	c #1A5E2A",
" $	c #2D8943",
".$	c #4BB465",
"+$	c #5ECB79",
"@$	c #42BF60",
"#$	c #30A34C",
"$$	c #2C9245",
"%$	c #2C9346",
"&$	c #1D632E",
"*$	c #174D24",
"=$	c #195427",
"-$	c #164A22",
";$	c #154821",
">$	c #174E24",
",$	c #174F25",
"'$	c #185025",
"                                                                                                                                ",
"                                                                                                                                ",
"                                                                                                                                ",
"                                                                                                                                ",
"                                                                                                                                ",
"                                                                                                                                ",
"                                                                                                                                ",
"                                                                                                                                ",
"                                                                                                                                ",
"                                                                                                                                ",
"                                                                                                                                ",
"                                                                                                                                ",
"                                                                                                                                ",
"                                                                                                                                ",
"                                                                                                                                ",
"                                                                                                                                ",
"                                      . . + @ #                                                                                 ",
"                $ % & & * * = = * $ - ; . . @ > # , ' ) ) ! ~                                                                   ",
"        { ] ^ / ( = _ = = = * : - < . . @ # # [ } ) ) | 1 2 3 4 ~ ^ 5 6 7                                                       ",
"      8 9 0 a b c b a ~ d e f . . + + # # / g ) | | h i 4 4 j 5 6 k k l l k k m m n o ] 7                                       ",
"      p q r s t u v v w x y z A B C > D ) ) ) | h 4 4 ^ E ^ i F g G } } ) H 3 ~ j I J K o L a M N O P                           ",
"      Q R S T U V W X Y Z ` x  ...+.Q @.k 2 #.i j ~ 1 / , $.[ } | %.2 ~ &.5 J l o *.=.0 -.N ;.v >.,.'.).!.~.{.M ].              ",
"    ^./.(._.p :.<.[.}.|.1.2.3.'.4.,.'.5.6.7.8.9.j [ # [ ) B h 0.a.~ 4 E k b.*.=.M -.c.b v d.,.7.e.(.b f.[ g.h.i.g.g.            ",
"    b.a ^.c.j.k.l.q m.n.o.|.p.q.r.s.t.u.` e.).{.v.w.x.u.K &.4 5 A y.4 4 ^ o ^.^.^./.v z.` c.A.| ].* B.e & e = C.D.E.F.          ",
"    k l *.a -.v x.k.l.T r G.H.I.J.K.L.M.N.` O.j.x 6.6.6.v.x x.u.P.6 4 | | | 2 Q.R.~ h ) C # , [ # # > - S.i T.U.V.W.X.          ",
"    ^ 5 k o *.a Y.v ,.Z.`. +[..+++@+#+$+%+&+*+=+-+;+'.>+6.x.x.P c =.! ,+'+)+!+~+$ + g h 3 {+%./ ]+^+/+(+_+:+<+[+[+}+|+1+        ",
"    3 ^ 5 6 7 *.a N v P x.k.2+r 3+4+5+6+7+8+9+0+a+b+c+d+e+M P f+u.=.g+e h+h.i+j+: } ~ 6 j k+l+m+n+o+%+[+[+%+%+%+[+}+}+8+        ",
"  p+| q+4 5 6 ] r+a ^.u.v d.9 k.s+[.}.t+u+v+w+}+X.x+y+z+A+B+C+# 5 7 G g.h.D+E+F+G+> H+z.I+J+K+%+[+%+X.X.X.L+X.%+[+}+M+8+        ",
"  N+O+g+| 4 ^ 5 A o =.^.P+Q+f+x.e.k.s+n.4+|.R+7+8+<+S+T+U+V+W+X+P+> B.g.C.Y+D+Z+} `+ @.@K.$+M.+@U+L+U+@@@@L+#@%+[+|+8+$+        ",
"    $@%@&@| h 4 ^ *@] b.=./.c.P d.9 x t =@-@;@>@#+,@J.'@)@S l.l.t x.v !@Z+'+&.m {.~@{@8+8+_+K.$+]@U+U+U+L+%+[+}+1+8+_+]@^@      ",
"        /@(@_@h 4 ~ 6 l o *.^.u.v P :@6.>+t <@[@}@|@Q 1@S =@2+2+S 2@3@. * g+S 4@l.-@5@}+M+_+K.$+7+#+.@L+X.%+}+8+8+K.5@#+6@      ",
"            7@8@9@~ j 5 k ] *.a -.Q+d.x.>.Q+0@M b 9  .a@b@=@c@d@ +<@e@F / >.p.H..+5+_+}+8+8+$+]@#+J.@+6@f@M+8+_+]@^@6@R+5+      ",
"                g@h@i@^ 5 k l o 7 o ] 6 k *.*.^.u.c P 6.a@:.j@k@~@[.l@A.3 m@M+#@1+8+[+M+8+K.$+^@J.n@5+t+o@p@$+7+#+R+@+|.++4+    ",
"                    q@r@s@! 1 ! ~ 5 k k o o =.^.-.u.v ,.x.t@:.u@d@[.v@b.~ w.w@U+X.[+[+1+_+$+{@#+n@x@t+.+G.~@e@6@y@|.;@4+.+-@    ",
"                        z@A@B@| 3 j 5 k k o =.C@9.P+c.v d.7.).t D@[.E@F@j {.x@G@X.%+H@I@$+{@J.n@J@K@.+L@[.T <@M@N@O@.+3+[. +    ",
"                          P@Q@o R@i ^ 5 k k b.a a /.u.P P x.7.6.Q S@G.^.^ '.|.%+#+v+R+>@O@.+G.[.[.T@D@q l.b@t k.6.a@~@d@d@U@U@  ",
"                              V@W@X@Y@6 5 k 7 *.a a N v P ,.x.{.x k. +=.4 '.Z@@@J.#+#+#+#+n@|..+r u@=@b@X+a@_.6.m@w '.u@`@G. #  ",
"                                  .#+#@#| k 6 l *.a ^.u.v P ,.{.6.>+S ##$#x.%#S+&##+6@n@n@y@*#|.;@4+=#-#l.3@9 ` {.{.7.x.;#6@>#  ",
"                                      ,#'#)#0.l l *.a N u.c d.x.{.x !#=.$#,.~#G@{#R+n@@+]#|.t+4+o@-@L@~@r  +~@D@^#/#(#_#:#      ",
"                                          <#[#}#j l |#1#P+c.c ,.9 6.3@2#5 >.3#4#{@n@x@++5#4+.+G.6#~@d@ +r 6#7#8#8+9#            ",
"                                              0#a#b#Q.=.a u.b P x.w.Q =.5 @.d@@@{@c#d#4+e#G.f#U  + +f#L@g#|.h#i#                ",
"                                                  j#k#}#b.1#N v P Q 2@b.^ Q+T <+l#o@o.3+[. +d@~@6#7#m#@@n#o#                    ",
"                                                      p#q#r#7 9.s#Q x b.4 Q+t#u#[+v#w#d@d@r f#x#y#z#A#                          ",
"                                                        B#C#D#E#a ..x F#3 P+G#.@H#I# +f#J#K#L#M#N#                              ",
"                                                            O#P#Q#R#z.{ 4 P+G#S#T#U#V##+W#X#Y#                                  ",
"                                                                Z#`# $.$+$9 @$#$$$%$&$*$                                        ",
"                                                                    =$-$;$N#>$,$>$'$                                            ",
"                                                                                                                                ",
"                                                                                                                                ",
"                                                                                                                                ",
"                                                                                                                                ",
"                                                                                                                                ",
"                                                                                                                                ",
"                                                                                                                                ",
"                                                                                                                                ",
"                                                                                                                                ",
"                                                                                                                                ",
"                                                                                                                                ",
"                                                                                                                                ",
"                                                                                                                                ",
"                                                                                                                                ",
"                                                                                                                                ",
"                                                                                                                                ",
"                                                                                                                                "};
