/* XPM */
static char * Z:\Lyrabar\share\pixmaps\lyrabar16_xpm[] = {
"16 16 79 1",
" 	c None",
".	c #6AD284",
"+	c #74D58C",
"@	c #7FD995",
"#	c #78D68F",
"$	c #6FD488",
"%	c #6BD284",
"&	c #65D180",
"*	c #46C766",
"=	c #41C461",
"-	c #45C163",
";	c #5BCF77",
">	c #61D07C",
",	c #68D182",
"'	c #6DD286",
")	c #5ECF7A",
"!	c #5ACE77",
"~	c #60CF7C",
"{	c #73D68B",
"]	c #6DD687",
"^	c #64D07F",
"/	c #58CD75",
"(	c #45C665",
"_	c #32B452",
":	c #3AB158",
"<	c #44B961",
"[	c #55C972",
"}	c #69D283",
"|	c #80D995",
"1	c #74D78C",
"2	c #60CA7A",
"3	c #4CBC67",
"4	c #39AE55",
"5	c #2CA54A",
"6	c #5EC177",
"7	c #6BD585",
"8	c #5ECE7A",
"9	c #52CB70",
"0	c #44C464",
"a	c #40BB5E",
"b	c #41C561",
"c	c #6CD285",
"d	c #38B857",
"e	c #32AD50",
"f	c #33AB50",
"g	c #31A64F",
"h	c #34AF52",
"i	c #5EC176",
"j	c #6DD587",
"k	c #63D07E",
"l	c #5BCE78",
"m	c #4DC96C",
"n	c #43C463",
"o	c #4ABD66",
"p	c #33AB51",
"q	c #36B556",
"r	c #3ABF5B",
"s	c #3FC25F",
"t	c #3ABE5B",
"u	c #3DC55F",
"v	c #5BC074",
"w	c #62D27E",
"x	c #57CD74",
"y	c #51CA70",
"z	c #4CC069",
"A	c #36B656",
"B	c #37BA58",
"C	c #3EC35F",
"D	c #48CD69",
"E	c #48BA65",
"F	c #3D9452",
"G	c #56BF70",
"H	c #57CF74",
"I	c #4FC36C",
"J	c #3CC25D",
"K	c #31A14D",
"L	c #368F4C",
"M	c #358F4B",
"N	c #27823D",
"                ",
"                ",
"                ",
"                ",
" .+@#+$%&       ",
" *=-;>,$'&)!~{  ",
"]^/(_:<[}|12345 ",
" 67890ab8cdefgh ",
"   ijklmnopqrstu",
"     vwxyzABCDE ",
"      FGHIrJK   ",
"        LMN     ",
"                ",
"                ",
"                ",
"                "};
